<?xml version="1.0" encoding="UTF-8" standalone="no"?>
<svg width="349px" height="349px" viewBox="0 0 349 349" version="1.1" xmlns="http://www.w3.org/2000/svg" xmlns:xlink="http://www.w3.org/1999/xlink">
    <!-- Generator: Sketch 48.2 (47327) - http://www.bohemiancoding.com/sketch -->
    <title>icon</title>
    <desc>Created with Sketch.</desc>
    <defs></defs>
    <g id="Tablet-Copy-2" stroke="none" stroke-width="1" fill="none" fill-rule="evenodd" transform="translate(-338.000000, -120.000000)">
        <g id="icon" transform="translate(338.000000, 120.000000)" fill="#FFFFFF">
            <path d="M174.5,349 C78.1263112,349 0,270.873689 0,174.5 C0,78.1263112 78.1263112,0 174.5,0 C270.873689,0 349,78.1263112 349,174.5 C349,270.873689 270.873689,349 174.5,349 Z M118,121 L231,121 L231,108 L118,108 L118,121 Z M194.968683,140 L194.968683,211.384048 C194.968683,217.871123 193.201678,222.882578 189.667616,226.418566 C186.133553,229.954553 181.257682,231.72252 175.039858,231.72252 C168.768889,231.72252 163.866447,229.927967 160.332384,226.338807 C156.798322,222.749647 155.031317,217.764777 155.031317,211.384048 L155.031317,140 L119,140 L119,209.709115 C119,215.451771 120.116003,222.045092 122.348043,229.489276 C123.729782,234.115305 126.293931,238.608334 130.040569,242.968499 C133.787207,247.328664 137.919076,250.691789 142.436299,253.057976 C146.953522,255.424163 152.573395,257.006028 159.296085,257.803619 C166.018776,258.601211 172.223222,259 177.909608,259 C187.741212,259 196.164378,257.697287 203.179359,255.091823 C208.228021,253.230777 213.050748,250.000582 217.647687,245.401139 C222.244626,240.801697 225.619206,235.431331 227.77153,229.289879 C229.923854,223.148428 231,216.621572 231,209.709115 L231,140 L194.968683,140 Z" id="Combined-Shape"></path>
        </g>
    </g>
</svg>